<?xml version="1.0" standalone="no"?>
<!DOCTYPE svg PUBLIC "-//W3C//DTD SVG 20010904//EN"
 "http://www.w3.org/TR/2001/REC-SVG-20010904/DTD/svg10.dtd">
<svg version="1.0" xmlns="http://www.w3.org/2000/svg"
 width="1024.000000pt" height="1024.000000pt" viewBox="0 0 1024.000000 1024.000000"
 preserveAspectRatio="xMidYMid meet">
<metadata>
Created by potrace 1.14, written by Peter Selinger 2001-2017
</metadata>
<g transform="translate(0.000000,1024.000000) scale(0.100000,-0.100000)"
fill="#000000" stroke="none">
<path d="M4848 10135 c-2 -2 -46 -6 -98 -10 -127 -8 -167 -12 -220 -19 -25 -4
-63 -9 -85 -12 -40 -5 -143 -20 -200 -30 -16 -3 -37 -7 -45 -9 -8 -2 -31 -7
-50 -10 -19 -3 -42 -8 -50 -10 -8 -2 -31 -7 -50 -10 -125 -21 -434 -110 -653
-189 -205 -74 -592 -251 -722 -331 -22 -14 -47 -28 -55 -32 -96 -44 -505 -324
-655 -449 -350 -290 -537 -483 -848 -874 -27 -34 -117 -162 -183 -260 -336
-500 -593 -1109 -719 -1700 -33 -157 -31 -147 -40 -200 -4 -25 -9 -54 -11 -65
-2 -11 -7 -40 -10 -65 -3 -25 -7 -52 -9 -60 -2 -8 -7 -46 -10 -85 -4 -38 -8
-81 -10 -95 -28 -169 -27 -782 1 -1030 6 -59 24 -198 29 -230 2 -14 9 -56 15
-95 9 -57 34 -181 65 -319 95 -427 311 -964 547 -1363 71 -119 196 -317 221
-348 4 -5 53 -71 109 -145 347 -465 763 -854 1264 -1183 228 -150 445 -267
726 -396 181 -82 481 -187 718 -251 164 -44 455 -104 555 -115 17 -1 82 -10
145 -19 187 -25 289 -31 600 -31 256 0 395 5 515 19 17 2 55 7 85 11 30 3 66
8 80 10 14 2 45 6 70 10 25 4 59 9 75 12 17 2 39 6 50 8 295 40 829 201 1155
347 55 24 377 185 405 201 11 7 52 30 90 51 87 48 389 248 470 310 33 25 73
56 90 68 594 453 1107 1086 1444 1782 149 305 306 740 356 986 2 8 12 53 23
100 19 77 44 204 57 288 3 17 7 44 10 60 4 29 24 184 30 242 15 143 20 273 20
525 0 251 -4 357 -20 500 -11 112 -17 158 -26 215 -6 36 -12 74 -14 85 -20
135 -79 405 -129 580 -110 394 -302 832 -537 1224 -67 114 -316 472 -340 491
-3 3 -37 43 -74 90 -161 200 -420 463 -623 632 -48 40 -94 79 -102 87 -32 31
-373 278 -433 313 -6 4 -56 35 -109 68 -54 33 -99 60 -101 60 -2 0 -42 22 -88
48 -110 63 -305 159 -451 221 -172 73 -505 190 -615 216 -10 2 -63 16 -118 31
-148 38 -448 96 -565 109 -30 3 -62 8 -70 10 -8 2 -53 7 -100 11 -47 3 -101 8
-120 10 -43 5 -657 13 -662 9z"/>
</g>
</svg>
